<?xml version="1.0" encoding="utf-8"?>
<!-- Generator: Adobe Illustrator 21.1.0, SVG Export Plug-In . SVG Version: 6.00 Build 0)  -->
<svg version="1.1" id="Layer_1" xmlns="http://www.w3.org/2000/svg" xmlns:xlink="http://www.w3.org/1999/xlink" x="0px" y="0px"
	 viewBox="0 0 100 103.8" style="enable-background:new 0 0 100 103.8;" xml:space="preserve">
<style type="text/css">
	.st0{fill:none;stroke:#000000;stroke-width:4.7012;stroke-linecap:round;stroke-linejoin:round;stroke-miterlimit:10;}
	.st1{clip-path:url(#SVGID_2_);fill:#010101;}
</style>
<g>
	
		<rect x="17.2" y="17.2" transform="matrix(0.7071 -0.7071 0.7071 0.7071 -20.7328 50.1037)" class="st0" width="65.8" height="65.8"/>
</g>
<g>
	<g>
		<g>
			<defs>
				
					<rect id="SVGID_1_" x="17.2" y="17.2" transform="matrix(0.7071 -0.7071 0.7071 0.7071 -20.7328 50.1037)" width="65.8" height="65.8"/>
			</defs>
			<clipPath id="SVGID_2_">
				<use xlink:href="#SVGID_1_"  style="overflow:visible;"/>
			</clipPath>
			<path class="st1" d="M92.2,6.6H11.8c-1.1,0-2,0.9-2,2s0.9,2,2,2h7.9c1.5,0,2.6,1.2,2.6,2.6v30.4c0,2.2,1.8,4,4,4s4-1.8,4-4V30
				c0-1.5,1.2-2.6,2.6-2.6c1.5,0,2.6,1.2,2.6,2.6v38.9c0,2.2,1.8,4,4,4s4-1.8,4-4V42.1c0-1.5,1.2-2.6,2.6-2.6s2.6,1.2,2.6,2.6v8
				c0,2.2,1.8,4,4,4s4-1.8,4-4V31.4c0-1.5,1.2-2.6,2.6-2.6S62,30,62,31.4v25c0,2.2,1.8,4,4,4c2.2,0,4-1.8,4-4V20.5
				c0-1.5,1.2-2.6,2.6-2.6s2.6,1.2,2.6,2.6v18c0,2.2,1.8,4,4,4s4-1.8,4-4V13.2c0-1.5,1.2-2.6,2.6-2.6h6.4c1.1,0,2-0.9,2-2
				S93.3,6.6,92.2,6.6z"/>
		</g>
	</g>
</g>
</svg>
